<?xml version="1.0" standalone="no"?>
<!DOCTYPE svg PUBLIC "-//W3C//DTD SVG 20010904//EN"
 "http://www.w3.org/TR/2001/REC-SVG-20010904/DTD/svg10.dtd">
<svg version="1.0" xmlns="http://www.w3.org/2000/svg"
 width="783.000000pt" height="624.000000pt" viewBox="0 0 783.000000 624.000000"
 preserveAspectRatio="xMidYMid meet">

<g transform="translate(0.000000,624.000000) scale(0.100000,-0.100000)"
fill="#000000" stroke="none">
<path d="M3890 4718 c-339 -46 -621 -191 -837 -431 -42 -47 -133 -175 -133
-187 0 -6 -3 -10 -8 -10 -8 0 -14 -11 -45 -77 -10 -21 -23 -47 -29 -57 -6 -11
-21 -48 -33 -83 l-23 -63 30 0 c16 0 55 7 86 16 48 14 69 29 132 91 42 42 96
84 125 97 71 34 219 46 580 46 369 0 447 -11 603 -82 61 -27 198 -114 235
-148 31 -29 60 -38 172 -49 154 -17 225 -31 300 -61 11 -4 36 -14 55 -21 43
-16 140 -80 192 -127 l40 -36 -6 50 c-19 149 -57 273 -128 417 -51 105 -52
107 -60 107 -5 0 -8 5 -8 11 0 14 -39 67 -114 154 -62 73 -85 96 -149 148 -22
18 -49 40 -60 50 -32 27 -146 93 -231 133 -208 97 -476 141 -686 112z"/>
<path d="M3393 3984 c-15 -7 -17 -36 -4 -49 14 -15 41 -132 41 -177 l0 -40 83
6 c45 3 294 11 552 17 259 6 471 12 473 14 9 9 -105 78 -156 94 -125 40 -355
71 -530 71 -54 0 -92 4 -87 9 18 16 212 34 294 28 81 -6 110 4 49 18 -40 8
-698 17 -715 9z"/>
<path d="M3163 3944 c-18 -9 -59 -43 -90 -76 -83 -85 -155 -118 -291 -133 -34
-4 -65 -11 -68 -16 -6 -10 608 -12 633 -2 16 6 7 135 -13 175 -32 64 -103 85
-171 52z"/>
<path d="M4879 3657 c97 -48 173 -113 237 -203 33 -45 55 -66 80 -74 39 -13
119 -6 130 12 12 19 -26 43 -70 43 -55 1 -96 27 -96 61 0 17 7 28 20 31 30 8
25 19 -25 53 -58 40 -135 74 -205 90 -30 7 -68 16 -84 21 -71 22 -65 5 13 -34z"/>
<path d="M3805 3625 c-30 -13 -30 -13 25 -14 49 -1 77 -6 168 -26 32 -8 30
-48 -3 -63 -14 -7 -38 -12 -52 -12 -21 0 -23 -2 -13 -15 34 -41 134 -24 152
27 6 15 15 28 21 27 7 0 50 -17 97 -37 74 -32 85 -40 85 -62 0 -21 -8 -27 -44
-39 -77 -24 -24 -32 216 -29 l228 3 -55 27 c-193 93 -407 168 -592 207 -112
24 -190 26 -233 6z"/>
<path d="M3000 3523 c0 -11 11 -13 212 -44 164 -24 264 -47 277 -63 8 -9 6
-24 -8 -52 -23 -48 -51 -184 -51 -247 0 -91 45 -234 84 -266 25 -21 145 -41
241 -41 97 0 175 21 215 58 20 18 32 19 223 15 111 -2 222 0 247 5 44 10 44
10 -28 11 -40 1 -106 6 -145 11 -40 6 -103 15 -142 21 -38 6 -91 15 -117 21
-45 11 -48 14 -48 45 0 76 44 110 168 129 65 10 59 21 -18 34 -38 6 -70 15
-70 20 0 14 69 70 93 74 12 3 48 7 81 11 115 11 96 24 -36 25 -205 0 -220 -11
-292 -230 -43 -131 -45 -135 -72 -135 -27 0 -29 3 -31 45 -9 155 -31 287 -64
380 -16 47 -64 116 -86 124 -21 8 -156 21 -363 36 -85 5 -181 13 -212 16 -36
4 -58 3 -58 -3z"/>
<path d="M2593 3475 c57 -19 77 -30 77 -43 0 -10 -4 -22 -9 -27 -16 -19 -41
-132 -41 -186 0 -68 25 -157 53 -187 11 -12 37 -26 56 -32 53 -15 206 -12 244
4 36 15 73 51 60 59 -4 2 -42 8 -85 12 -88 8 -88 6 -88 124 0 129 -46 259 -99
280 -14 5 -75 12 -136 15 l-110 6 78 -25z"/>
<path d="M4544 3310 c-60 -9 -141 -50 -167 -85 -17 -23 -17 -25 0 -33 10 -5
52 -14 93 -21 204 -32 251 -61 103 -62 -100 -1 -239 -12 -247 -20 -10 -10 15
-77 32 -85 9 -4 143 -9 297 -12 227 -3 308 -1 429 14 120 14 153 21 172 38 31
28 36 69 9 73 -62 11 -67 13 -55 28 7 8 23 15 37 15 33 0 39 23 16 62 -26 44
-56 58 -130 58 l-63 0 0 -67 c0 -104 -9 -107 -69 -21 -28 41 -61 80 -74 86
-48 23 -299 45 -383 32z"/>
<path d="M5306 3282 c-3 -5 4 -37 15 -73 15 -48 19 -77 14 -118 -5 -41 -4 -52
6 -49 18 6 38 100 39 181 l0 67 -34 0 c-19 0 -37 -4 -40 -8z"/>
<path d="M3345 3194 c-26 -40 -40 -54 -53 -50 -39 11 -231 18 -247 8 -14 -7 3
-13 75 -26 51 -10 129 -28 172 -41 55 -15 81 -19 83 -11 5 17 14 176 9 176 -2
0 -19 -25 -39 -56z"/>
<path d="M1792 2244 l3 -209 74 -3 c172 -7 274 56 281 173 7 112 -20 174 -94
216 -35 20 -59 24 -154 27 l-112 4 2 -208z m238 91 c27 -26 30 -35 30 -93 0
-57 -3 -67 -29 -93 -26 -26 -36 -29 -90 -29 l-61 0 0 126 0 126 60 -4 c49 -3
65 -9 90 -33z"/>
<path d="M2344 2437 c-2 -7 -3 -100 -2 -207 l3 -195 34 -3 c44 -4 52 9 49 88
-1 58 1 65 18 68 13 2 25 -5 32 -20 16 -31 45 -81 65 -112 14 -21 25 -26 57
-26 47 0 51 13 17 68 -55 91 -55 90 -15 125 81 71 63 179 -35 216 -42 16 -216
14 -223 -2z m210 -99 c7 -18 6 -35 -2 -53 -10 -22 -17 -25 -67 -25 l-55 0 0
55 0 56 57 -3 c52 -3 58 -5 67 -30z"/>
<path d="M2844 2437 c-2 -7 -3 -100 -2 -207 l3 -195 43 -3 42 -3 0 210 0 211
-40 0 c-24 0 -43 -5 -46 -13z"/>
<path d="M3110 2436 c0 -8 21 -72 46 -142 25 -71 55 -156 66 -189 12 -33 26
-63 32 -67 6 -4 34 -8 62 -8 41 0 53 4 57 18 3 9 17 49 30 87 72 198 107 299
107 307 0 5 -21 8 -46 6 l-46 -3 -44 -130 c-24 -71 -44 -138 -44 -147 0 -23
-20 -34 -31 -17 -5 8 -29 78 -55 157 l-46 142 -44 0 c-31 0 -44 -4 -44 -14z"/>
<path d="M3682 2243 l3 -208 123 -3 122 -3 0 36 c0 35 0 35 -47 36 -27 1 -61
4 -78 8 -28 6 -30 9 -30 51 l0 45 68 3 67 3 0 34 0 34 -67 3 -68 3 0 45 0 45
78 3 77 3 0 34 0 35 -125 0 -125 0 2 -207z"/>
<path d="M4120 2239 l0 -210 43 3 42 3 3 118 c1 64 6 117 11 117 5 0 29 -53
53 -117 45 -118 46 -118 79 -118 38 0 45 11 96 150 17 43 35 81 41 83 8 2 12
-33 14 -115 l3 -118 40 0 40 0 3 208 2 208 -56 -3 c-65 -3 -58 6 -114 -138
-57 -146 -60 -152 -77 -139 -7 6 -13 16 -13 22 0 11 -72 194 -92 235 -10 19
-19 22 -65 22 l-53 0 0 -211z"/>
<path d="M4905 2438 c-2 -7 -25 -71 -51 -143 -26 -71 -55 -154 -65 -182 -28
-79 -27 -85 24 -81 38 3 43 6 53 38 l12 35 83 0 84 0 18 -37 c16 -35 21 -38
58 -38 40 0 41 1 36 28 -2 15 -23 79 -46 142 -23 63 -53 144 -65 180 l-23 65
-56 3 c-40 2 -59 -1 -62 -10z m92 -173 c32 -84 32 -85 -32 -85 -30 0 -55 4
-55 8 0 28 44 142 53 139 6 -2 22 -30 34 -62z"/>
<path d="M5320 2416 l0 -35 53 -3 52 -3 5 -170 5 -170 42 -3 43 -3 2 173 3
173 52 3 c54 3 71 19 57 56 -5 14 -27 16 -160 16 l-154 0 0 -34z"/>
<path d="M5810 2240 l0 -211 123 3 122 3 3 33 c3 25 -1 32 -15 33 -10 1 -38 2
-63 4 -85 4 -80 0 -80 55 l0 50 71 0 70 0 -3 33 -3 32 -68 3 -68 3 3 47 3 47
75 5 75 5 0 30 0 30 -122 3 -123 3 0 -211z"/>
</g>
</svg>
